<?xml version="1.0"?>
<svg xmlns="http://www.w3.org/2000/svg" xmlnsXlink="http://www.w3.org/1999/xlink" xmlnssvgjs="http://svgjs.com/svgjs" version="1.1" width="512" height="512" x="0" y="0" viewBox="0 0 512 512" style="enable-background:new 0 0 512 512" xml:space="preserve" class=""><g><g xmlns="http://www.w3.org/2000/svg" id="Flat"><rect fill="#61dafb" height="176" rx="16" width="272" x="120" y="24" data-original="#4db6e4" style="" class=""/><path d="m120 136h272a0 0 0 0 1 0 0v48a16 16 0 0 1 -16 16h-240a16 16 0 0 1 -16-16v-48a0 0 0 0 1 0 0z" fill="#357586" data-original="#3ba5d3" style="" class=""/><g fill="#85ccd5"><path d="m168 160h16v16h-16z" fill="#85ccd5" data-original="#85ccd5" style="" class=""/><path d="m200 160h16v16h-16z" fill="#85ccd5" data-original="#85ccd5" style="" class=""/><path d="m232 160h16v16h-16z" fill="#85ccd5" data-original="#85ccd5" style="" class=""/><path d="m264 160h16v16h-16z" fill="#85ccd5" data-original="#85ccd5" style="" class=""/><path d="m296 160h16v16h-16z" fill="#85ccd5" data-original="#85ccd5" style="" class=""/><path d="m328 160h16v16h-16z" fill="#85ccd5" data-original="#85ccd5" style="" class=""/><path d="m192 288h-48v-16h40v-48h16v56a8 8 0 0 1 -8 8z" fill="#85ccd5" data-original="#85ccd5" style="" class=""/><path d="m232 432h-88v-16h80v-192h16v200a8 8 0 0 1 -8 8z" fill="#85ccd5" data-original="#85ccd5" style="" class=""/><path d="m368 288h-48a8 8 0 0 1 -8-8v-56h16v48h40z" fill="#85ccd5" data-original="#85ccd5" style="" class=""/><path d="m368 432h-88a8 8 0 0 1 -8-8v-200h16v192h80z" fill="#85ccd5" data-original="#85ccd5" style="" class=""/></g><path d="m144 48h16v16h-16z" fill="#3e869a" data-original="#5cc1ed" style="" class=""/><path d="m144 80h16v32h-16z" fill="#3e869a" data-original="#5cc1ed" style="" class=""/><rect fill="#61dafb" height="64" rx="8" width="96" x="24" y="248" data-original="#348ed8" style="" class=""/><path d="m96 344h-48l8-32h32z" fill="#d5d5d3" data-original="#d5d5d3" style="" class=""/><path d="m40 336h64v16h-64z" fill="#dfdfdd" data-original="#dfdfdd" style="" class=""/><path d="m92 328h-40l4-16h32z" fill="#cececc" data-original="#cececc" style="" class=""/><rect fill="#61dafb" height="64" rx="8" width="96" x="392" y="240" data-original="#348ed8" style="" class=""/><path d="m464 336h-48l8-32h32z" fill="#d5d5d3" data-original="#d5d5d3" style="" class=""/><path d="m408 328h64v16h-64z" fill="#dfdfdd" data-original="#dfdfdd" style="" class=""/><path d="m460 320h-40l4-16h32z" fill="#cececc" data-original="#cececc" style="" class=""/><rect fill="#61dafb" height="64" rx="8" width="96" x="24" y="392" data-original="#348ed8" style="" class=""/><path d="m96 488h-48l8-32h32z" fill="#d5d5d3" data-original="#d5d5d3" style="" class=""/><path d="m40 480h64v16h-64z" fill="#dfdfdd" data-original="#dfdfdd" style="" class=""/><path d="m92 472h-40l4-16h32z" fill="#cececc" data-original="#cececc" style="" class=""/><rect fill="#61dafb" height="64" rx="8" width="96" x="392" y="392" data-original="#348ed8" style="" class=""/><path d="m464 488h-48l8-32h32z" fill="#d5d5d3" data-original="#d5d5d3" style="" class=""/><path d="m408 480h64v16h-64z" fill="#dfdfdd" data-original="#dfdfdd" style="" class=""/><path d="m460 472h-40l4-16h32z" fill="#cececc" data-original="#cececc" style="" class=""/></g></g></svg>
