<svg xmlns="http://www.w3.org/2000/svg" width="512" height="512" x="0" y="0" version="1.1" viewBox="0 0 512 512" xmlnsXlink="http://www.w3.org/1999/xlink" xmlnssvgjs="http://svgjs.com/svgjs" xml:space="preserve" style="enable-background:new 0 0 512 512"><g><g xmlns="http://www.w3.org/2000/svg" id="Flat"><rect width="272" height="176" x="120" y="24" fill="#61dafb" data-original="#4db6e4" rx="16"/><path fill="#357586" d="m120 136h272a0 0 0 0 1 0 0v48a16 16 0 0 1 -16 16h-240a16 16 0 0 1 -16-16v-48a0 0 0 0 1 0 0z" data-original="#3ba5d3"/><g fill="#85ccd5"><path fill="#85ccd5" d="m168 160h16v16h-16z" data-original="#85ccd5"/><path fill="#85ccd5" d="m200 160h16v16h-16z" data-original="#85ccd5"/><path fill="#85ccd5" d="m232 160h16v16h-16z" data-original="#85ccd5"/><path fill="#85ccd5" d="m264 160h16v16h-16z" data-original="#85ccd5"/><path fill="#85ccd5" d="m296 160h16v16h-16z" data-original="#85ccd5"/><path fill="#85ccd5" d="m328 160h16v16h-16z" data-original="#85ccd5"/><path fill="#85ccd5" d="m192 288h-48v-16h40v-48h16v56a8 8 0 0 1 -8 8z" data-original="#85ccd5"/><path fill="#85ccd5" d="m232 432h-88v-16h80v-192h16v200a8 8 0 0 1 -8 8z" data-original="#85ccd5"/><path fill="#85ccd5" d="m368 288h-48a8 8 0 0 1 -8-8v-56h16v48h40z" data-original="#85ccd5"/><path fill="#85ccd5" d="m368 432h-88a8 8 0 0 1 -8-8v-200h16v192h80z" data-original="#85ccd5"/></g><path fill="#3e869a" d="m144 48h16v16h-16z" data-original="#5cc1ed"/><path fill="#3e869a" d="m144 80h16v32h-16z" data-original="#5cc1ed"/><rect width="96" height="64" x="24" y="248" fill="#61dafb" data-original="#348ed8" rx="8"/><path fill="#d5d5d3" d="m96 344h-48l8-32h32z" data-original="#d5d5d3"/><path fill="#dfdfdd" d="m40 336h64v16h-64z" data-original="#dfdfdd"/><path fill="#cececc" d="m92 328h-40l4-16h32z" data-original="#cececc"/><rect width="96" height="64" x="392" y="240" fill="#61dafb" data-original="#348ed8" rx="8"/><path fill="#d5d5d3" d="m464 336h-48l8-32h32z" data-original="#d5d5d3"/><path fill="#dfdfdd" d="m408 328h64v16h-64z" data-original="#dfdfdd"/><path fill="#cececc" d="m460 320h-40l4-16h32z" data-original="#cececc"/><rect width="96" height="64" x="24" y="392" fill="#61dafb" data-original="#348ed8" rx="8"/><path fill="#d5d5d3" d="m96 488h-48l8-32h32z" data-original="#d5d5d3"/><path fill="#dfdfdd" d="m40 480h64v16h-64z" data-original="#dfdfdd"/><path fill="#cececc" d="m92 472h-40l4-16h32z" data-original="#cececc"/><rect width="96" height="64" x="392" y="392" fill="#61dafb" data-original="#348ed8" rx="8"/><path fill="#d5d5d3" d="m464 488h-48l8-32h32z" data-original="#d5d5d3"/><path fill="#dfdfdd" d="m408 480h64v16h-64z" data-original="#dfdfdd"/><path fill="#cececc" d="m460 472h-40l4-16h32z" data-original="#cececc"/></g></g></svg>